<svg xmlns="http://www.w3.org/2000/svg" width="50" height="50" viewBox="0 0 50 50" fill="none"><g clip-path="url(#clip0)"><path d="M23.4273 6.81848C23.4273 7.7804 23.802 8.68479 24.4821 9.36497C24.7682 9.6511 25.2319 9.651 25.518 9.36497C25.804 9.07893 25.804 8.61516 25.518 8.32922C24.685 7.49622 24.685 6.14085 25.518 5.30784C26.9221 3.90374 26.9221 1.61897 25.518 0.214771C25.2318 -0.0712647 24.7682 -0.0712647 24.4821 0.214771C24.1961 0.500806 24.1961 0.964575 24.4821 1.25051C25.3151 2.08352 25.3151 3.43899 24.4821 4.272C23.8019 4.95217 23.4273 5.85657 23.4273 6.81848V6.81848ZM43.6036 23.4307C42.7614 23.4307 41.9428 23.5913 41.1699 23.9082C40.2178 21.6831 38.5899 19.6706 36.4601 18.0863C36.1356 17.8449 35.6768 17.9122 35.4353 18.2367C35.1937 18.5614 35.2612 19.0201 35.5857 19.2616C37.5206 20.7008 38.9916 22.5201 39.8396 24.5227C40.1426 25.2384 40.9756 25.5759 41.6974 25.2753C42.3015 25.0233 42.9428 24.8955 43.6037 24.8955C46.323 24.8955 48.5352 27.0891 48.5352 29.7854C48.5352 32.4817 46.3229 34.6752 43.6036 34.6752C42.2936 34.6752 41.0598 34.1703 40.1295 33.2536C39.5821 32.7145 38.6916 32.7145 38.1442 33.2537C37.2143 34.1704 35.9805 34.6752 34.6702 34.6752C33.2226 34.6752 31.8533 34.0475 30.9137 32.953C30.6424 32.637 30.2493 32.4558 29.8353 32.4558C29.8353 32.4558 29.8353 32.4558 29.8352 32.4558C29.4212 32.4558 29.0279 32.6368 28.7565 32.9531C27.817 34.0475 26.4478 34.6752 25 34.6752C23.5522 34.6752 22.183 34.0475 21.2434 32.9529C20.972 32.6369 20.5788 32.4557 20.1647 32.4558C19.7507 32.4558 19.3576 32.6369 19.0863 32.953C18.1467 34.0475 16.7774 34.6752 15.3298 34.6752C14.0195 34.6752 12.7857 34.1704 11.8557 33.2536C11.3083 32.7145 10.4177 32.7144 9.87051 33.2537C8.94023 34.1703 7.70645 34.6752 6.39639 34.6752C3.67705 34.6752 1.46484 32.4817 1.46484 29.7854C1.46484 27.0891 3.67705 24.8955 6.39639 24.8955C7.05732 24.8955 7.69863 25.0233 8.30273 25.2753C9.02441 25.5764 9.85752 25.2383 10.1604 24.5227C12.3396 19.3761 18.3032 15.9182 25 15.9182C27.7278 15.9182 30.4144 16.4966 32.7692 17.5909C33.1363 17.7616 33.5717 17.6023 33.7422 17.2354C33.9126 16.8686 33.7534 16.433 33.3866 16.2625C30.8396 15.0789 27.9396 14.4533 25 14.4533C17.7414 14.4533 11.2504 18.2511 8.83008 23.9081C8.05723 23.5912 7.23857 23.4306 6.39639 23.4306C2.86943 23.4307 0 26.2814 0 29.7854C0 32.7351 2.03359 35.2214 4.78096 35.9344L8.26875 45.6375C9.20645 48.247 11.6992 50.0002 14.4717 50.0002H18.8239C19.2285 50.0002 19.5563 49.6724 19.5563 49.2678C19.5563 48.8632 19.2285 48.5354 18.8239 48.5354H14.4717C12.3153 48.5354 10.3766 47.1717 9.64727 45.1421L6.41133 36.1397C8.08643 36.1359 9.66484 35.4949 10.8631 34.3319C12.0647 35.4982 13.649 36.1401 15.3298 36.1401C17.1883 36.1401 18.9478 35.3406 20.1649 33.9451C21.382 35.3407 23.1413 36.1401 25 36.1401C26.8588 36.1401 28.6182 35.3407 29.8352 33.9451C31.0523 35.3407 32.8116 36.1401 34.6702 36.1401C36.3511 36.1401 37.9354 35.4984 39.1369 34.3319C40.3353 35.4949 41.9136 36.1359 43.5887 36.1397L40.3526 45.1422C39.6233 47.1717 37.6847 48.5354 35.5283 48.5354H22.242C21.8374 48.5354 21.5096 48.8632 21.5096 49.2678C21.5096 49.6724 21.8374 50.0002 22.242 50.0002H35.5283C38.3009 50.0002 40.7936 48.247 41.7313 45.6376L45.2191 35.9344C47.9664 35.2214 50 32.7351 50 29.7854C50 26.2814 47.1306 23.4307 43.6036 23.4307V23.4307ZM28.8766 10.1276C29.1626 10.4136 29.6263 10.4135 29.9123 10.1276C30.1984 9.84153 30.1984 9.37786 29.9124 9.09182C29.3781 8.55755 29.3781 7.68821 29.9124 7.15393C31.0177 6.04856 31.0177 4.24993 29.9124 3.14446C29.6264 2.85842 29.1626 2.85833 28.8767 3.14446C28.5905 3.43049 28.5905 3.89417 28.8766 4.1802C29.4108 4.71448 29.4108 5.58381 28.8766 6.11809C27.7713 7.22346 27.7713 9.02219 28.8766 10.1276V10.1276ZM20.0875 10.1276C20.3735 10.4136 20.8372 10.4135 21.1232 10.1276C21.4094 9.84153 21.4094 9.37786 21.1233 9.09182C20.5891 8.55755 20.5891 7.68821 21.1233 7.15393C22.2286 6.04856 22.2286 4.24993 21.1233 3.14446C20.8373 2.85842 20.3735 2.85833 20.0876 3.14446C19.8015 3.43049 19.8015 3.89417 20.0875 4.1802C20.6218 4.71448 20.6218 5.58381 20.0875 6.11809C18.9822 7.22346 18.9822 9.02219 20.0875 10.1276V10.1276ZM13.1499 25.571C13.4675 25.8886 13.8979 26.0408 14.3917 26.0408C15.3667 26.0408 16.5883 25.4473 17.6729 24.3626C18.3768 23.6587 18.9098 22.8519 19.1735 22.0907C19.4986 21.1526 19.3949 20.3531 18.8813 19.8396C17.9366 18.8949 15.9922 19.4142 14.3584 21.0481H14.3585C13.6546 21.752 13.1216 22.5588 12.8578 23.32C12.5326 24.258 12.6363 25.0575 13.1499 25.571V25.571ZM14.2418 23.7995C14.4317 23.2515 14.8518 22.6261 15.3941 22.0837H15.3942C16.354 21.1239 17.2437 20.8243 17.6436 20.8243C17.7439 20.8243 17.8135 20.8432 17.8455 20.8752C17.8937 20.9234 17.9434 21.1665 17.7895 21.6109C17.5995 22.1589 17.1795 22.7843 16.637 23.3267C15.4362 24.5275 14.3455 24.6948 14.1856 24.5351C14.1376 24.487 14.0879 24.2439 14.2418 23.7995V23.7995ZM22.6562 22.7053C22.6562 25.0158 23.6638 26.758 25 26.758C26.3362 26.758 27.3438 25.0158 27.3438 22.7053C27.3438 20.3949 26.3362 18.6526 25 18.6526C23.6638 18.6526 22.6562 20.3949 22.6562 22.7053V22.7053ZM25.8789 22.7053C25.8789 24.4033 25.2258 25.2932 25 25.2932C24.7742 25.2932 24.1211 24.4033 24.1211 22.7053C24.1211 21.0073 24.7742 20.1174 25 20.1174C25.2258 20.1174 25.8789 21.0073 25.8789 22.7053V22.7053ZM30.7279 19.8396C30.2145 20.3531 30.1107 21.1525 30.4358 22.0907C30.6996 22.8519 31.2326 23.6587 31.9364 24.3626C33.0211 25.4473 34.2425 26.0408 35.2177 26.0408C35.7113 26.0408 36.142 25.8885 36.4596 25.571C36.973 25.0575 37.0768 24.2581 36.7517 23.32C36.4879 22.5587 35.9549 21.7519 35.2511 21.048C33.6173 19.4142 31.673 18.8949 30.7279 19.8396V19.8396ZM34.2152 22.0838C34.7576 22.6262 35.1775 23.2516 35.3676 23.7996C35.5215 24.2439 35.4718 24.4871 35.4237 24.5352C35.2637 24.6951 34.173 24.5275 32.9722 23.3268C32.4298 22.7844 32.0099 22.159 31.8198 21.611C31.6659 21.1667 31.7156 20.9235 31.7637 20.8754C31.7958 20.8433 31.8653 20.8244 31.9657 20.8244C32.3658 20.8244 33.2555 21.124 34.2152 22.0838C34.2151 22.0838 34.2151 22.0838 34.2152 22.0838V22.0838Z" fill="black"></path></g><defs><clipPath id="clip0"><rect width="50" height="50" fill="white"></rect></clipPath></defs></svg>