<svg xmlns="http://www.w3.org/2000/svg" width="51" height="50" viewBox="0 0 51 50" fill="none"><path d="M20.1326 46.6649C6.95268 42.9612 5.95421 29.7925 6.95268 24.4427H48.8887V46.6649H20.1326Z" fill="url(#paint0_linear)"></path><path d="M45.483 15.0544C45.769 14.7684 45.769 14.3046 45.483 14.0186C45.197 13.7325 44.7332 13.7325 44.4472 14.0186C44.1611 14.3046 44.1611 14.7684 44.4472 15.0544C44.7332 15.3404 45.197 15.3404 45.483 15.0544ZM42.415 12.968C42.7011 12.6819 42.7011 12.2182 42.415 11.9321C42.129 11.6461 41.6652 11.6461 41.3792 11.9321C41.0932 12.2182 41.0932 12.6819 41.3792 12.968C41.6652 13.254 42.129 13.254 42.415 12.968ZM20.8485 2.68145C20.444 2.68145 20.1161 3.00938 20.1161 3.41387C20.1161 3.81836 20.444 4.14629 20.8485 4.14629C21.253 4.14629 21.5809 3.81836 21.5809 3.41387C21.5809 3.00938 21.2531 2.68145 20.8485 2.68145ZM10.9504 8.18623C11.2364 7.9002 11.2364 7.43643 10.9504 7.15049C10.6643 6.86445 10.2006 6.86445 9.91454 7.15049C9.6285 7.43652 9.6285 7.90029 9.91454 8.18623C10.2006 8.47227 10.6643 8.47227 10.9504 8.18623ZM40.0878 9.50957C40.3738 9.22354 40.3738 8.75977 40.0878 8.47383C39.8018 8.18779 39.338 8.18779 39.0519 8.47383C38.7659 8.75986 38.7659 9.22354 39.0519 9.50957C39.338 9.79561 39.8018 9.79561 40.0878 9.50957ZM25.2374 6.16787C25.6419 6.16787 25.9698 5.83994 25.9698 5.43545C25.9698 5.03096 25.6419 4.70303 25.2374 4.70303C24.8329 4.70303 24.505 5.03096 24.505 5.43545C24.505 5.83994 24.8329 6.16787 25.2374 6.16787ZM28.5844 4.04053C28.9889 4.04053 29.3168 3.7126 29.3168 3.30811C29.3168 2.90361 28.9889 2.57568 28.5844 2.57568C28.1799 2.57568 27.8519 2.90361 27.8519 3.30811C27.8519 3.7126 28.1799 4.04053 28.5844 4.04053ZM25.0664 8.99717C25.0664 8.59268 24.7385 8.26475 24.334 8.26475C23.9295 8.26475 23.6016 8.59268 23.6016 8.99717C23.6016 9.40166 23.9295 9.72959 24.334 9.72959C24.7386 9.72959 25.0664 9.40166 25.0664 8.99717ZM30.2258 14.1602C29.8213 14.1602 29.4934 14.4881 29.4934 14.8926C29.4934 15.2971 29.8213 15.625 30.2258 15.625C30.6303 15.625 30.9582 15.2971 30.9582 14.8926C30.9582 14.4881 30.6303 14.1602 30.2258 14.1602ZM31.6906 18.5547C31.2861 18.5547 30.9582 18.8826 30.9582 19.2871C30.9582 19.6916 31.2861 20.0195 31.6906 20.0195C32.0951 20.0195 32.423 19.6916 32.423 19.2871C32.423 18.8826 32.0951 18.5547 31.6906 18.5547ZM37.55 17.0898C37.1455 17.0898 36.8176 17.4178 36.8176 17.8223C36.8176 18.2268 37.1455 18.5547 37.55 18.5547C37.9545 18.5547 38.2824 18.2268 38.2824 17.8223C38.2824 17.4178 37.9545 17.0898 37.55 17.0898ZM47.3464 21.2765C47.1384 19.9392 46.4179 18.7534 45.3891 17.9382L48.6915 17.1253C49.3023 16.9752 49.768 16.524 49.9371 15.9185C50.1062 15.3125 49.9416 14.6851 49.4966 14.2399L39.7319 4.47529C39.287 4.03057 38.6599 3.86582 38.0543 4.03438C37.4484 4.20322 36.9966 4.66856 36.8455 5.28018L35.2107 11.9243C34.6343 11.7404 34.009 11.6497 33.3977 11.6773C33.2562 11.6837 33.1439 11.5908 33.1154 11.4547C32.7643 9.77813 31.2896 8.54053 29.5813 8.48262L33.1346 2.60977C33.4604 2.07139 33.4706 1.42295 33.1617 0.874902C32.8529 0.327149 32.2931 0 31.6643 0H17.8536C17.225 0 16.6653 0.326953 16.3563 0.874414C16.0473 1.42207 16.0568 2.07061 16.3823 2.60967L20.8652 10.018C20.3887 10.2738 19.95 10.6019 19.571 10.9912C19.4986 11.0658 19.3747 11.0813 19.2838 11.0278C18.793 10.7392 18.2529 10.5699 17.6777 10.5247C16.6916 10.4479 15.7324 10.7597 14.9846 11.3862L13.1566 3.95615C13.0057 3.34531 12.5539 2.87988 11.948 2.71113C11.3426 2.54238 10.7152 2.70732 10.2704 3.15205L0.505745 12.9167C0.0607253 13.3618 -0.103923 13.9892 0.0651199 14.5952C0.234163 15.2009 0.699886 15.6521 1.31053 15.8021L5.61971 16.8627C4.10663 17.8615 3.04491 19.438 2.70721 21.2619C1.15018 21.6835 0.00125266 23.108 0.00125266 24.7966C0.00125266 26.5651 1.26141 28.0447 2.93094 28.385V30.1885C2.93094 33.4877 3.68963 36.8016 5.12498 39.7719C6.56043 42.7424 8.68563 45.3961 11.271 47.4461C13.3493 49.093 15.9532 50 18.6029 50H31.3997C34.0494 50 36.6532 49.093 38.7318 47.4459C41.0609 45.5987 42.9631 43.3388 44.3856 40.7287C44.5792 40.3735 44.4483 39.9287 44.0931 39.7352C43.738 39.5414 43.2931 39.6726 43.0995 40.0277C41.7715 42.4642 39.9958 44.5739 37.8219 46.2981C36.0013 47.7406 33.7205 48.5352 31.3997 48.5352H18.6027C16.2819 48.5352 14.0012 47.7406 12.1807 46.2981C9.76756 44.3846 7.78377 41.9074 6.44373 39.1345C5.10379 36.3618 4.39559 33.2684 4.39559 30.1886V28.4587H8.25301C8.6576 28.4587 8.98543 28.1309 8.98543 27.7263C8.98543 27.3217 8.6576 26.9938 8.25301 26.9938H3.66317C2.45164 26.9938 1.4659 26.0081 1.4659 24.7966C1.4659 23.5851 2.45164 22.5993 3.66317 22.5993C3.89276 22.5993 46.3819 22.589 46.5889 22.6139C46.5937 22.6145 46.5982 22.6152 46.603 22.6157C47.6904 22.7467 48.5362 23.6744 48.5362 24.7966C48.5362 26.0081 47.5505 26.9938 46.339 26.9938H11.671C11.2664 26.9938 10.9386 27.3217 10.9386 27.7263C10.9386 28.1309 11.2664 28.4587 11.671 28.4587H45.6065V30.1885C45.6065 32.5201 45.214 34.817 44.4399 37.0154C44.3056 37.397 44.506 37.8151 44.8875 37.9495C45.2598 38.0806 45.6856 37.8881 45.8216 37.502C46.6509 35.1468 47.0714 32.6862 47.0714 30.1884V28.3849C48.7409 28.0446 50.0011 26.565 50.0011 24.7965C50.0012 23.1267 48.8772 21.7152 47.3464 21.2765ZM38.2679 5.63076C38.3294 5.42197 38.5358 5.3627 38.6961 5.51104L48.4607 15.2756C48.6104 15.4372 48.5526 15.6421 48.3416 15.7028L43.3276 16.937C43.1237 16.889 42.9157 16.8517 42.7035 16.8283C42.4395 16.8004 42.1743 16.7913 41.9152 16.8014C41.7851 16.8064 41.6734 16.7213 41.6474 16.5941C41.3142 14.9684 39.9253 13.7427 38.2712 13.6136C38.0964 13.5999 37.7404 13.6713 37.6155 13.5252C37.3024 13.1587 36.9463 12.8427 36.5582 12.5792L38.2679 5.63076ZM17.6359 1.85176C17.5311 1.66152 17.634 1.47295 17.8536 1.46475H31.6643C31.8866 1.47422 31.986 1.66006 31.8813 1.85117L25.6307 12.1824C25.3836 12.1632 25.1357 12.1552 24.8882 12.159C24.564 12.1635 24.2394 12.1884 23.9172 12.2318L17.6359 1.85176ZM1.66034 14.3796C1.45037 14.3193 1.39188 14.114 1.54149 13.9525L11.3061 4.18789C11.4699 4.03926 11.673 4.09805 11.7342 4.30684L13.5271 11.5948C10.7191 11.1892 8.12821 13.0484 7.59266 15.8137C7.591 15.8224 7.58729 15.8297 7.58495 15.838L1.66034 14.3796ZM4.23631 21.1345C4.70418 19.3715 6.05213 17.9589 7.84481 17.4244C8.44979 17.244 8.90819 16.7296 9.03094 16.0916C9.46034 13.8586 11.7665 12.4989 13.9346 13.1847C14.5674 13.3849 15.2527 13.1989 15.7231 12.6991C16.2005 12.1918 16.8714 11.9317 17.5639 11.9851C17.9146 12.0127 18.2433 12.1154 18.5416 12.2908C19.2208 12.6896 20.0767 12.5742 20.6217 12.012C20.9134 11.7125 21.2545 11.4636 21.6253 11.274L22.4151 12.5793C22.0518 12.7 21.6971 12.8458 21.3549 13.016C20.9927 13.1961 20.845 13.6356 21.0251 13.9979C21.2072 14.3645 21.6512 14.5046 22.007 14.3277C22.9054 13.8812 23.9088 13.6379 24.9085 13.624C26.2477 13.6067 27.3291 13.9966 27.9956 14.3278C28.358 14.5078 28.7975 14.3601 28.9775 13.9979C29.1575 13.6356 29.0098 13.196 28.6476 13.0159C28.177 12.7821 27.6839 12.5949 27.178 12.4553L28.5976 10.1091C28.9224 9.97793 29.2748 9.92295 29.6274 9.9502C30.6311 10.0279 31.4761 10.77 31.6819 11.7548C31.8566 12.59 32.6035 13.1726 33.454 13.1413C33.601 13.1354 33.7499 13.1383 33.8956 13.1494C34.4069 13.1893 34.895 13.3284 35.3386 13.5556C35.3486 13.5616 35.3595 13.5668 35.3698 13.5725C35.7958 13.7957 36.18 14.1002 36.5023 14.4773C36.9328 14.9812 37.5203 15.0246 38.1562 15.0741C39.1641 15.1527 40.0097 15.8987 40.2126 16.8889C40.3836 17.7202 41.1253 18.2984 41.9733 18.2652C42.1616 18.258 42.3552 18.2646 42.5462 18.2849C44.1363 18.4598 45.4341 19.6301 45.8239 21.1347L4.23631 21.1345ZM8.62313 11.6446C8.90916 11.3586 8.90916 10.8948 8.62313 10.6089C8.33709 10.3229 7.87332 10.3229 7.58729 10.6089C7.30125 10.8949 7.30125 11.3587 7.58729 11.6446C7.87332 11.9306 8.33709 11.9306 8.62313 11.6446ZM11.1828 18.5547C10.7783 18.5547 10.4504 18.8826 10.4504 19.2871C10.4504 19.6916 10.7783 20.0195 11.1828 20.0195C11.5873 20.0195 11.9152 19.6916 11.9152 19.2871C11.9152 18.8826 11.5873 18.5547 11.1828 18.5547ZM4.51922 12.6953C4.23319 12.9813 4.23319 13.4451 4.51922 13.7311C4.80526 14.017 5.26903 14.0171 5.55506 13.7311C5.8411 13.445 5.8411 12.9813 5.55506 12.6953C5.26903 12.4092 4.80526 12.4092 4.51922 12.6953ZM17.0422 15.625C16.6377 15.625 16.3098 15.9529 16.3098 16.3574C16.3098 16.7619 16.6377 17.0898 17.0422 17.0898C17.4467 17.0898 17.7746 16.7619 17.7746 16.3574C17.7746 15.9529 17.4467 15.625 17.0422 15.625ZM22.9016 18.5547C22.4971 18.5547 22.1691 18.8826 22.1691 19.2871C22.1691 19.6916 22.4971 20.0195 22.9016 20.0195C23.306 20.0195 23.634 19.6916 23.634 19.2871C23.634 18.8826 23.306 18.5547 22.9016 18.5547Z" fill="#000"></path><defs><linearGradient id="paint0_linear" x1="6.3536" y1="47.2822" x2="49.4878" y2="47.2822" gradientUnits="userSpaceOnUse"><stop stop-color="#000" stop-opacity="0.3"></stop><stop offset="1" stop-color="#000" stop-opacity="0"></stop></linearGradient></defs></svg>