<svg xmlns="http://www.w3.org/2000/svg" width="50" height="50" viewBox="0 0 50 50" fill="none"><g clip-path="url(#clip0)"><path d="M20.0875 10.8659C20.3735 11.152 20.8372 11.1519 21.1232 10.8659C21.4094 10.5799 21.4094 10.1162 21.1233 9.83018C20.5891 9.2959 20.5891 8.42656 21.1233 7.89229C22.2286 6.78691 22.2286 4.98818 21.1233 3.88281C20.8373 3.59678 20.3735 3.59678 20.0876 3.88281C19.8015 4.16885 19.8015 4.63252 20.0875 4.91855C20.6218 5.45283 20.6218 6.32217 20.0875 6.85645C18.9822 7.96182 18.9822 9.76045 20.0875 10.8659V10.8659ZM28.8766 10.8659C29.1626 11.152 29.6263 11.1519 29.9123 10.8659C30.1984 10.5799 30.1984 10.1162 29.9124 9.83018C29.3781 9.2959 29.3781 8.42656 29.9124 7.89229C31.0177 6.78691 31.0177 4.98818 29.9124 3.88281C29.6264 3.59678 29.1626 3.59678 28.8767 3.88281C28.5905 4.16885 28.5905 4.63252 28.8766 4.91855C29.4108 5.45283 29.4108 6.32217 28.8766 6.85645C27.7713 7.96182 27.7713 9.76045 28.8766 10.8659V10.8659ZM23.4273 6.81826C23.4273 7.78018 23.802 8.68457 24.4821 9.36475C24.7682 9.65078 25.2319 9.65078 25.518 9.36475C25.804 9.07871 25.804 8.61494 25.518 8.329C24.685 7.496 24.685 6.14062 25.518 5.30762C26.9221 3.90352 26.9221 1.61875 25.518 0.214551C25.2318 -0.0714844 24.7682 -0.0714844 24.4821 0.214551C24.1961 0.500586 24.1961 0.964356 24.4821 1.25029C25.3151 2.0833 25.3151 3.43877 24.4821 4.27178C23.8019 4.95195 23.4273 5.85635 23.4273 6.81826V6.81826ZM17.1736 17.9191C17.6231 19.3276 18.9185 20.2739 20.3969 20.2739H23.6714C24.076 20.2739 24.4038 19.946 24.4038 19.5415C24.4038 19.137 24.076 18.8091 23.6714 18.8091H20.3969C19.5585 18.8091 18.824 18.2725 18.569 17.4738L17.5558 14.2989C17.5165 14.1614 17.5979 14.0479 17.742 14.044H31.4242C31.832 14.044 32.2699 13.8038 32.4893 13.4597L36.3146 7.45283C38.3831 4.20479 43.3778 1.46484 47.2271 1.46484H47.2384C47.9105 1.46582 48.5162 2.03545 48.5345 2.68389C48.5442 3.02773 48.4174 3.35254 48.1771 3.59824C47.917 3.86436 47.5827 3.97637 47.2189 3.97637C43.6956 3.97637 40.2719 5.90488 38.2733 9.01914L32.5568 17.9268C32.2021 18.4793 31.5986 18.8092 30.9421 18.8092H27.0894C26.6848 18.8092 26.3569 19.1371 26.3569 19.5416C26.3569 19.9461 26.6848 20.274 27.0894 20.274H30.9421C32.0998 20.274 33.1644 19.6923 33.7896 18.718L39.5062 9.81035C41.2376 7.11211 44.1894 5.44131 47.2187 5.44131C47.98 5.44131 48.6866 5.17295 49.2248 4.62227C49.745 4.09004 50.0199 3.38701 49.9988 2.64258C49.9577 1.1875 48.7203 0.00205078 47.2405 0H47.2271C42.8684 0 37.4213 2.98809 35.0791 6.66592L31.3134 12.5792H17.7421C16.6278 12.57 15.8171 13.692 16.1604 14.7442L17.1736 17.9191ZM47.0614 22.5993H2.93857C1.31826 22.5993 0 23.9136 0 25.529C0 27.1444 1.31826 28.4587 2.93857 28.4587H3.67334L8.26875 41.2428C8.68652 42.4054 9.41357 43.3973 10.3358 44.1406H4.53076C3.70176 44.1406 3.02734 44.815 3.02734 45.644C3.02734 48.0459 4.98145 50 7.3833 50H42.6166C45.0186 50 46.9727 48.0459 46.9727 45.644C46.9727 44.815 46.2982 44.1406 45.4692 44.1406H39.6642C40.5864 43.3973 41.3134 42.4054 41.7312 41.2429L43.0823 37.4843C43.2191 37.1036 43.0216 36.6841 42.6408 36.5473C42.2606 36.4105 41.8407 36.608 41.7038 36.9888L40.3525 40.7475C39.6233 42.7771 37.6846 44.1406 35.5283 44.1406H14.4717C12.3154 44.1406 10.3766 42.777 9.64727 40.7474L5.22988 28.4587H44.7701L42.8835 33.7071C42.7467 34.0878 42.9443 34.5073 43.325 34.6441C43.6964 34.7776 44.1241 34.5881 44.262 34.2026L46.3268 28.4587H47.0615C48.6818 28.4587 50.0001 27.1444 50.0001 25.529C50.0001 23.9136 48.6817 22.5993 47.0614 22.5993V22.5993ZM45.4692 45.6055C45.4905 45.6055 45.5078 45.6228 45.5078 45.644C45.5078 47.2382 44.2108 48.5352 42.6167 48.5352H7.3833C5.78916 48.5352 4.49219 47.2382 4.49219 45.644C4.49219 45.6228 4.50947 45.6055 4.53076 45.6055H45.4692ZM47.0614 26.9938H2.93857C2.12598 26.9938 1.46484 26.3367 1.46484 25.529C1.46484 24.7213 2.12598 24.0642 2.93857 24.0642H47.0614C47.874 24.0642 48.5352 24.7213 48.5352 25.529C48.5352 26.3367 47.874 26.9938 47.0614 26.9938Z" fill="black"></path></g><defs><clipPath id="clip0"><rect width="50" height="50" fill="white"></rect></clipPath></defs></svg>