<svg xmlns="http://www.w3.org/2000/svg" width="50" height="50" viewBox="0 0 50 50" fill="none"><g clip-path="url(#clip0)"><path d="M48.2889 24.5H47.5213C47.4469 24.0499 47.4084 23.6254 47.4939 23.3107C47.644 22.7579 48.1378 22.1719 48.6153 21.6052C49.2919 20.8024 49.9914 19.9725 49.9999 18.96C50.0105 17.6856 49.1308 16.7373 48.3544 15.9007C47.933 15.4465 47.5349 15.0175 47.3807 14.6417C47.1958 14.191 47.1048 13.5823 47.0167 12.9936C46.8332 11.7662 46.6252 10.3752 45.4539 9.77465C44.2814 9.17436 43.0306 9.81801 41.9266 10.3862C41.3977 10.6584 40.8506 10.9399 40.3777 11.0531C40.0246 11.1372 39.4995 11.0845 39.0348 11.0284C38.6337 10.9798 38.2683 11.266 38.2198 11.6676C38.1713 12.0692 38.4576 12.4341 38.8591 12.4825C39.4768 12.5573 40.1294 12.6182 40.718 12.4778C41.3635 12.3234 41.9906 12.0007 42.5969 11.6886C43.4641 11.2423 44.2831 10.8207 44.7858 11.0783C45.2877 11.3356 45.4238 12.2461 45.568 13.2103C45.6689 13.8852 45.7734 14.583 46.0254 15.1979C46.2805 15.8194 46.7889 16.3672 47.2807 16.8971C47.9002 17.5649 48.5408 18.2554 48.5351 18.9478C48.5311 19.4323 48.0044 20.0571 47.4953 20.6613C46.9151 21.3498 46.3152 22.0616 46.0803 22.9269C45.9445 23.4267 45.9668 23.9693 46.0402 24.5001H41.1219C41.1104 23.8568 40.8336 23.2797 40.4573 22.735C40.9492 21.3719 41.3861 19.9692 41.7563 18.5587C41.859 18.1675 41.625 17.7671 41.2338 17.6644C40.8423 17.5617 40.4422 17.7957 40.3395 18.1869C40.057 19.2632 39.7343 20.3347 39.3775 21.3865C38.9494 20.8687 38.5544 20.3422 38.4167 19.8352C38.2805 19.3339 38.4215 18.613 38.5707 17.8498C38.7845 16.7563 39.0269 15.5168 38.4877 14.4646C37.9484 13.412 36.8 12.8849 35.7869 12.4198C35.0805 12.0954 34.4133 11.7891 34.0863 11.387C33.6881 10.8961 33.4841 10.0868 33.2869 9.30395C33.0123 8.21382 32.7282 7.08657 31.8623 6.45181C30.7697 5.65181 29.3944 5.82398 28.1812 5.97574C27.5113 6.05962 26.8787 6.13892 26.4414 6.03443C25.922 5.9105 25.3269 5.60445 24.7515 5.30836C23.5715 4.70133 22.2345 4.01325 20.995 4.64869C19.8186 5.25162 19.5586 6.6232 19.3674 7.88364C18.7796 7.60913 18.2523 7.33569 17.9731 6.99243C17.5749 6.50152 17.3709 5.69214 17.1737 4.90934C16.899 3.8192 16.615 2.69196 15.749 2.0572C14.6565 1.2572 13.2812 1.42937 12.068 1.58113C11.3983 1.66501 10.7656 1.74411 10.3282 1.63982C9.80874 1.51589 9.21372 1.20984 8.63824 0.913745C7.45836 0.306912 6.12116 -0.380976 4.8821 0.25408C3.64275 0.888745 3.42019 2.37604 3.224 3.68834C3.1283 4.32848 3.02917 4.99029 2.82634 5.48463C2.65584 5.90064 2.22205 6.36812 1.76268 6.86314C0.931233 7.75923 -0.0111463 8.77495 8.41531e-05 10.1289C0.00916615 11.2025 0.758577 12.0916 1.48328 12.9515C2.00349 13.5688 2.54148 14.2071 2.7072 14.8164C2.84294 15.317 2.70193 16.0376 2.55271 16.8004C2.33865 17.8944 2.09597 19.1345 2.63533 20.1862C3.17449 21.2385 4.32243 21.7656 5.33532 22.2308C6.04196 22.5553 6.70953 22.8618 7.03707 23.2653C7.29039 23.577 7.4649 24.0185 7.60924 24.5H1.71111C0.745101 24.4946 -0.0519664 25.3382 0.00301383 26.3015C0.157115 29.0017 0.881331 31.5754 2.15545 33.951C2.34666 34.3076 2.7907 34.4416 3.14705 34.2502C3.50349 34.059 3.63747 33.6151 3.44626 33.2586C2.27381 31.0724 1.6073 28.7036 1.46531 26.2178C1.45682 26.069 1.55115 25.9698 1.71111 25.9647H48.2889C48.4504 25.9705 48.5431 26.0685 48.5346 26.2179C48.2969 30.3814 46.5381 34.3024 43.582 37.2588C40.3025 40.5386 36.1233 42.2279 31.5562 42.2401H18.4437C13.2926 42.2389 8.54527 40.0088 5.25456 35.9702C4.99909 35.6566 4.53776 35.6093 4.22409 35.8652C3.91052 36.1207 3.86355 36.5821 4.11911 36.8956C6.41364 39.7108 9.42534 41.7439 12.7851 42.8219V44.9127C12.7851 47.7182 15.0675 50.0006 17.873 50.0006H32.1269C34.9324 50.0006 37.2148 47.7182 37.2148 44.9127V42.8249C39.9764 41.9399 42.5074 40.4044 44.6178 38.2946C47.8285 35.0835 49.7389 30.8244 49.9971 26.3015C50.052 25.3381 49.2497 24.4951 48.2889 24.5V24.5ZM17.121 24.5C15.2927 21.7337 13.7333 18.7947 12.4851 15.7573C11.6279 13.673 10.9014 11.5033 10.3258 9.30815C10.2231 8.91684 9.8228 8.68295 9.43159 8.7854C9.04029 8.88803 8.8063 9.28832 8.90884 9.67963C9.50093 11.9376 10.2484 14.1698 11.1302 16.3143C12.2936 19.1449 13.7188 21.8927 15.3747 24.5H9.13101C8.92486 23.7227 8.67203 22.9544 8.17418 22.3418C7.6315 21.6732 6.77506 21.2799 5.94664 20.8995C5.11091 20.5157 4.24685 20.1189 3.93884 19.518C3.63103 18.9177 3.81364 17.9843 3.99021 17.0817C4.16511 16.1876 4.34606 15.2632 4.12077 14.4324C3.86999 13.5105 3.22605 12.7464 2.6032 12.0075C2.04578 11.346 1.46941 10.662 1.46482 10.1166C1.45838 9.34467 2.15887 8.5896 2.8364 7.85942C3.36423 7.29048 3.91013 6.7021 4.18142 6.04058C4.45153 5.38238 4.56384 4.63141 4.67253 3.90504C4.83063 2.84802 4.97995 1.84968 5.54987 1.55779C6.12008 1.2656 7.01734 1.72751 7.96793 2.21647C8.62095 2.55241 9.29624 2.89977 9.98804 3.06481C10.6832 3.23083 11.4797 3.13112 12.2498 3.03483C13.2383 2.9111 14.2607 2.78317 14.8833 3.23903C15.3234 3.56159 15.5418 4.42877 15.7532 5.26734C15.9892 6.20435 16.2333 7.17329 16.8359 7.91606C17.3786 8.58364 18.2346 8.97661 19.0624 9.35658C19.8984 9.74037 20.7628 10.1372 21.0707 10.7381C21.3785 11.3389 21.1961 12.272 21.0197 13.1742C20.8448 14.0688 20.664 14.9937 20.8896 15.8238C20.9897 16.1941 21.1564 16.5379 21.3438 16.8474C19.3723 17.8999 18.0273 19.9775 18.0273 22.3641C18.0273 23.0968 18.1561 23.8192 18.4035 24.5001H17.121V24.5ZM28.5592 24.5H19.9954C19.6655 23.8395 19.4921 23.1089 19.4921 22.364C19.4921 19.7254 21.6387 17.5788 24.2772 17.5788C26.9158 17.5788 29.0624 19.7254 29.0624 22.364C29.0625 23.109 28.8889 23.8396 28.5592 24.5ZM33.6763 24.5H30.151C30.3985 23.8191 30.5272 23.0968 30.5272 22.364C30.5272 20.5012 29.7071 18.8273 28.41 17.6812C28.7304 17.6144 29.0587 17.5788 29.3944 17.5788C32.033 17.5788 34.1796 19.7254 34.1796 22.364C34.1796 23.109 34.0062 23.8396 33.6763 24.5V24.5ZM35.2682 24.5C35.5157 23.8191 35.6445 23.0968 35.6445 22.364C35.6445 18.9177 32.8408 16.114 29.3945 16.114C28.5108 16.114 27.6324 16.3027 26.832 16.6621C26.0515 16.311 25.1872 16.114 24.2773 16.114C23.7463 16.114 23.2306 16.1811 22.7379 16.3063C22.5538 16.0377 22.3844 15.7392 22.3035 15.4404C22.1673 14.9392 22.3083 14.2183 22.4575 13.4551C22.6713 12.3616 22.9137 11.1221 22.3745 10.0699C22.0226 9.38315 21.4111 8.92075 20.7476 8.55268C20.9062 7.51069 21.0488 6.26695 21.6633 5.9522C22.2335 5.66011 23.1308 6.12193 24.0813 6.61089C24.7344 6.94683 25.4097 7.29419 26.1015 7.45923C26.7968 7.62524 27.5931 7.52554 28.3633 7.42925C29.3517 7.30552 30.3741 7.17769 30.9967 7.63345C31.4368 7.9561 31.6552 8.82319 31.8666 9.66176C32.1026 10.5988 32.3467 11.5677 32.9493 12.3105C33.4921 12.9781 34.348 13.371 35.1758 13.751C36.0119 14.1348 36.8762 14.5317 37.1841 15.1325C37.4919 15.7333 37.3095 16.6664 37.1332 17.5687C36.9583 18.4632 36.7774 19.3881 37.0032 20.2189C37.2536 21.1415 37.8977 21.9059 38.5206 22.645C39.0663 23.2924 39.6286 23.9611 39.6558 24.5H35.2682ZM35.75 44.9127C35.75 46.9104 34.1247 48.5357 32.1269 48.5357H17.8731C15.8753 48.5357 14.25 46.9104 14.25 44.9127V43.2257C15.6097 43.5409 17.0149 43.7049 18.4437 43.7049H31.5562C32.9859 43.7049 34.3905 43.5425 35.7499 43.2283V44.9127H35.75Z" fill="black"></path></g><defs><clipPath id="clip0"><rect width="50" height="50" fill="white"></rect></clipPath></defs></svg>