<svg xmlns="http://www.w3.org/2000/svg" width="50" height="50" viewBox="0 0 50 50" fill="none"><path d="M10.9858 19.0556C11.2883 18.787 11.3157 18.324 11.0472 18.0216C10.7786 17.719 10.3156 17.6917 10.0132 17.9603C9.71074 18.2289 9.6833 18.6918 9.95186 18.9943C10.2204 19.2968 10.6834 19.3242 10.9858 19.0556V19.0556ZM7.29062 22.0577C7.40967 21.6711 7.19277 21.2612 6.80625 21.1422C6.41963 21.023 6.00977 21.2399 5.89072 21.6266C5.77168 22.0132 5.98857 22.423 6.3751 22.5421C6.76162 22.6612 7.17158 22.4443 7.29062 22.0577ZM34.8395 20.0962C34.442 20.1715 34.1809 20.5548 34.2562 20.9522C34.3316 21.3497 34.7148 21.6107 35.1122 21.5355C35.5097 21.4603 35.7708 21.077 35.6954 20.6795C35.6201 20.282 35.2369 20.0209 34.8395 20.0962ZM13.4726 18.7579C13.775 18.4894 13.8024 18.0265 13.5339 17.7239C13.2652 17.4215 12.8023 17.394 12.4999 17.6627C12.1975 17.9312 12.17 18.3941 12.4386 18.6967C12.7071 18.9991 13.1701 19.0266 13.4726 18.7579ZM14.9374 15.5461C15.2398 15.2775 15.2673 14.8146 14.9987 14.5121C14.7301 14.2097 14.2672 14.1822 13.9647 14.4509C13.6623 14.7194 13.6349 15.1823 13.9034 15.4849C14.1721 15.7873 14.635 15.8147 14.9374 15.5461ZM11.6926 15.8957C11.995 15.6271 12.0225 15.1642 11.7539 14.8617C11.4853 14.5592 11.0224 14.5317 10.7199 14.8004C10.4175 15.0689 10.39 15.5319 10.6586 15.8344C10.9271 16.1369 11.3901 16.1643 11.6926 15.8957ZM38.043 34.1674C37.7569 34.4534 37.7569 34.9172 38.043 35.2031C38.329 35.4892 38.7928 35.4892 39.0788 35.2031C39.3648 34.9171 39.3648 34.4533 39.0788 34.1674C38.7927 33.8813 38.329 33.8813 38.043 34.1674V34.1674ZM41.6454 24.7106C41.7414 24.3177 41.5007 23.9213 41.1077 23.8254C40.7147 23.7294 40.3184 23.9701 40.2225 24.3631C40.1265 24.7561 40.3672 25.1524 40.7602 25.2483C41.153 25.3443 41.5494 25.1036 41.6454 24.7106V24.7106ZM39.8537 28.9594C39.4607 28.8635 39.0644 29.1041 38.9685 29.4972C38.8725 29.89 39.1132 30.2864 39.5062 30.3824C39.8991 30.4783 40.2955 30.2377 40.3914 29.8446C40.4874 29.4518 40.2467 29.0554 39.8537 28.9594V28.9594ZM42.3162 26.857C41.9232 26.761 41.5269 27.0018 41.431 27.3947C41.3351 27.7877 41.5757 28.184 41.9687 28.28C42.3616 28.3759 42.758 28.1353 42.8539 27.7422C42.9499 27.3493 42.7092 26.9529 42.3162 26.857V26.857ZM42.6777 7.32227C37.9559 2.60049 31.6777 0 25 0C18.3223 0 12.0442 2.60049 7.32227 7.32227C2.60049 12.0441 0 18.3223 0 25C0 31.6777 2.60049 37.9559 7.32227 42.6777C12.0442 47.3995 18.3223 50 25 50C31.6777 50 37.9559 47.3995 42.6777 42.6777C47.3996 37.956 50 31.6777 50 25C50 18.3223 47.3995 12.0441 42.6777 7.32227V7.32227ZM41.6419 41.6419C37.1968 46.0871 31.2865 48.5352 25 48.5352C18.7135 48.5352 12.8033 46.0871 8.35811 41.6419C3.91289 37.1967 1.46484 31.2865 1.46484 25C1.46484 18.7135 3.91289 12.8033 8.35811 8.35811C12.8033 3.91289 18.7135 1.46484 25 1.46484C31.2865 1.46484 37.1968 3.91289 41.6419 8.35811C46.087 12.8033 48.5352 18.7135 48.5352 25C48.5352 31.2865 46.0871 37.1968 41.6419 41.6419ZM44.7452 23.8896C44.3428 23.227 43.8272 22.6598 43.2274 22.2052C42.5787 17.9425 40.4425 14.0309 37.1871 11.1617C33.8207 8.19453 29.4926 6.56055 25 6.56055C20.4105 6.56055 16.033 8.24941 12.6387 11.3204C11.2429 11.3743 9.92012 11.9043 8.8623 12.844C7.59736 13.9674 6.91621 15.5062 6.83936 17.0758C5.14014 17.7506 3.83135 19.1527 3.2873 20.9191C2.34961 23.9629 3.94277 27.1915 6.86211 28.3352C7.22061 30.2995 7.89248 32.1755 8.86143 33.922C8.38564 36.6332 9.17188 39.4469 11.217 41.4921C13.8763 44.1514 17.9154 44.7149 21.1729 43.04C22.4245 43.304 23.7103 43.4396 24.9999 43.4396C25.7146 43.4396 26.4344 43.3981 27.1394 43.3166C27.5411 43.2701 27.8292 42.9067 27.7827 42.5049C27.7362 42.1031 27.3728 41.8146 26.971 41.8615C26.3218 41.9367 25.6586 41.9747 24.9999 41.9747C24.3007 41.9747 23.6031 41.9306 22.9123 41.8459C23.1426 41.6255 23.2808 41.3216 23.2913 41.0021C23.3023 40.6661 23.1725 40.3369 22.9347 40.0992L12.6099 29.7743C12.3721 29.5365 12.0424 29.4086 11.7067 29.4178C11.3694 29.429 11.0483 29.5812 10.8258 29.8353C10.2691 30.4709 9.82412 31.169 9.48945 31.9046C9.03291 30.8822 8.68047 29.8189 8.43574 28.7232C8.65371 28.7469 8.87148 28.7589 9.08809 28.7589C11.0024 28.7589 12.8279 27.8479 13.9771 26.2544L15.0291 26.5321L16.5591 31.2318C16.7072 31.6867 17.1114 32.0003 17.5889 32.0307C18.0613 32.0606 18.5073 31.8021 18.7116 31.3688L20.7877 26.9799C21.7556 26.8313 22.6873 26.573 23.5734 26.2155C23.2507 27.4774 23.1246 28.7937 23.2068 30.0987L19.3634 33.0663C18.9855 33.3584 18.8263 33.8439 18.9577 34.3032C19.0892 34.7628 19.4815 35.0908 19.9587 35.1393L24.877 35.6278L27.1313 40.0259C27.3323 40.4181 27.7286 40.6574 28.1622 40.6573C28.6776 40.6572 29.1365 40.3169 29.2784 39.821L30.6336 35.1589C30.7497 35.1215 30.864 35.0806 30.9784 35.0401C31.2802 35.8367 31.7489 36.5635 32.3588 37.1735C33.1185 37.9331 34.0317 38.447 34.9994 38.7177C33.5263 39.7962 31.9018 40.6223 30.1507 41.1793C29.7652 41.302 29.5521 41.7139 29.6747 42.0993C29.7986 42.4892 30.2178 42.6952 30.5947 42.5753C32.9947 41.8118 35.1758 40.5838 37.0829 38.9264C38.4828 38.8246 39.854 38.2415 40.9221 37.1735C42.228 35.8676 42.8572 34.0562 42.6596 32.2396C44.0677 31.4044 45.0625 30.0605 45.4515 28.4702C45.8358 26.8987 45.585 25.2721 44.7452 23.8896V23.8896ZM21.7117 40.9477C20.7301 41.7462 19.5851 42.238 18.4018 42.4301L18.0997 37.3356L21.7117 40.9477ZM16.9394 42.5153C15.4607 42.449 14.002 41.9233 12.7984 40.9465L16.6197 37.1252L16.9394 42.5153ZM11.7615 30.9975L15.3734 34.6094L10.2792 34.3072C10.4712 33.124 10.963 31.9791 11.7615 30.9975V30.9975ZM15.5839 36.0894L11.7626 39.9107C10.7858 38.7073 10.2602 37.2483 10.1938 35.7698L15.5839 36.0894ZM25 8.02539C29.1357 8.02539 33.1198 9.52949 36.2187 12.2606C38.9313 14.6516 40.7997 17.8281 41.5727 21.3183C40.7676 21.0375 39.9004 20.927 39.0619 20.9989C38.8504 19.8634 38.4801 18.7479 37.9475 17.6869C37.726 17.246 37.2828 16.9439 36.7898 16.8984C34.813 16.7194 32.7965 17.0268 30.9589 17.7684C31.5331 15.5406 31.493 13.1577 30.775 10.887C30.626 10.4158 30.2358 10.0473 29.7568 9.9251C25.3363 8.79756 20.6341 10.2232 17.544 13.5094C16.7716 12.5764 15.7552 11.9072 14.6192 11.5697C17.5815 9.27441 21.2125 8.02539 25 8.02539V8.02539ZM37.6124 25.3596C36.1016 25.2933 34.4482 24.7119 32.9903 23.7188C31.6654 22.8165 30.5987 21.6456 29.9527 20.3938C30.0686 20.17 30.1777 19.9435 30.2796 19.7137C32.1995 18.642 34.4494 18.1592 36.6443 18.3562C37.7459 20.5569 38.0592 23.0209 37.6124 25.3596ZM9.83506 13.9391C11.8398 12.1588 14.9937 12.4813 16.588 14.6625C15.2714 16.4596 14.4716 18.5564 14.2559 20.808L12.2257 21.9131C11.154 21.7593 10.1752 21.2338 9.45088 20.4189C7.77041 18.5265 7.94268 15.6196 9.83506 13.9391V13.9391ZM7.72246 27.0871C5.30391 26.342 3.94238 23.7686 4.6873 21.3503C5.05391 20.1597 5.87861 19.1862 6.9624 18.6251C7.17158 19.6212 7.63291 20.5778 8.35586 21.3919C8.93428 22.0427 9.63594 22.553 10.4132 22.8999C9.82373 23.1225 9.31377 23.6208 9.39443 24.2879C9.45186 24.7628 9.78779 25.1485 10.2504 25.2706L12.4222 25.8438C11.2446 27.1053 9.43418 27.6144 7.72246 27.0871V27.0871ZM20.5573 25.5331C20.0811 25.606 19.674 25.9089 19.4684 26.3436L17.715 30.0501L16.3706 25.9207C16.2479 25.5442 15.9461 25.2592 15.5634 25.158L11.3646 24.0497L14.966 22.0893C15.3883 21.8593 15.6677 21.4356 15.7133 20.9561C15.9471 18.4982 16.9689 16.2483 18.6687 14.4496C19.3672 13.7103 20.155 13.0827 21.0045 12.5733C21.2129 13.2573 21.5129 13.9387 21.9058 14.6087C22.1124 14.9611 22.5642 15.0717 22.9081 14.87C23.257 14.6653 23.374 14.2167 23.1694 13.8677C22.7917 13.2235 22.5087 12.5512 22.3343 11.8945C24.5231 10.9577 26.9971 10.7365 29.3824 11.3414C30.1217 13.6893 30.0408 16.1724 29.2289 18.4112C27.8482 18.1305 26.4372 17.3974 25.201 16.3091C24.8975 16.0419 24.4347 16.0712 24.1673 16.3748C23.9 16.6784 23.9294 17.1413 24.233 17.4085C25.5687 18.5845 27.0984 19.404 28.6267 19.7767C28.1663 20.6534 27.5846 21.475 26.8862 22.2141C25.1917 24.0071 23.0109 25.1577 20.5573 25.5331V25.5331ZM30.1778 33.7664C29.7195 33.9134 29.3654 34.2766 29.2303 34.739L28.0858 38.6761L26.1042 34.8101C25.9234 34.4592 25.581 34.2261 25.1866 34.1862L20.8655 33.7569L24.1111 31.2509C24.4923 30.957 24.701 30.494 24.6693 30.0138C24.5666 28.4057 24.823 26.7771 25.4104 25.2879C26.3329 24.72 27.1861 24.0291 27.9507 23.2198C28.3679 22.7783 28.7463 22.3096 29.0892 21.8205C29.8474 22.9953 30.9079 24.0727 32.1657 24.9295C33.7705 26.0225 35.5361 26.6708 37.2333 26.805C36.9175 27.7434 36.4731 28.6467 35.9005 29.4869C34.5071 31.5325 32.528 33.0123 30.1778 33.7664V33.7664ZM39.8864 36.1373C38.0968 37.9271 35.1847 37.9271 33.3949 36.1373C32.9198 35.6623 32.5594 35.0936 32.3315 34.4709C33.6696 33.8138 34.8679 32.9273 35.8872 31.8387C37.3825 32.9883 39.4132 33.3822 41.2298 32.858C41.2397 34.0764 40.7656 35.2581 39.8864 36.1373V36.1373ZM44.0287 28.1222C43.7379 29.3131 43.0008 30.3194 41.953 30.9559C40.3699 31.9174 38.2965 31.8112 36.8264 30.7122C37.8004 29.3932 38.5015 27.8957 38.892 26.35C39.1922 25.1619 39.3242 23.6604 39.2457 22.454C40.9479 22.3256 42.5997 23.1788 43.4933 24.65C44.1298 25.6979 44.3199 26.931 44.0287 28.1222ZM31.0825 30.0625L28.1658 27.8038C27.8461 27.5561 27.3859 27.6145 27.1384 27.9345C26.8907 28.2542 26.9491 28.7143 27.269 28.9619L30.1857 31.2206C30.503 31.4667 30.9641 31.4116 31.2132 31.0899C31.4608 30.7702 31.4024 30.3102 31.0825 30.0625ZM19.1982 19.5889C18.9123 19.3026 18.4485 19.3025 18.1624 19.5884C17.8763 19.8743 17.8761 20.3381 18.162 20.6241L20.7694 23.2338C21.0554 23.5199 21.519 23.5201 21.8052 23.2343C22.0914 22.9483 22.0916 22.4846 21.8057 22.1985L19.1982 19.5889ZM27.3661 14.2378C27.7705 14.2264 28.089 13.8894 28.0774 13.485C28.0659 13.0806 27.7289 12.7621 27.3245 12.7736C26.9202 12.7851 26.6017 13.1221 26.6132 13.5265C26.6247 13.9309 26.9618 14.2493 27.3661 14.2378ZM34.8468 34.6859C34.5607 34.9721 34.5607 35.4357 34.8468 35.7217C35.1328 36.0078 35.5966 36.0078 35.8826 35.7217C36.1687 35.4356 36.1687 34.972 35.8826 34.6859C35.5966 34.3999 35.1328 34.3999 34.8468 34.6859ZM21.2143 17.5746C20.9283 17.2884 20.4646 17.2883 20.1785 17.5741C19.8924 17.8601 19.8921 18.3238 20.178 18.6099L22.7854 21.2196C23.0713 21.5058 23.535 21.5061 23.8211 21.2201C24.1072 20.9342 24.1075 20.4704 23.8216 20.1844L21.2143 17.5746ZM7.84258 24.2098C7.45596 24.0906 7.04609 24.3075 6.92705 24.6941C6.80801 25.0808 7.0249 25.4906 7.41143 25.6097C7.79805 25.7288 8.20791 25.5118 8.32695 25.1253C8.446 24.7387 8.2291 24.3288 7.84258 24.2098V24.2098ZM32.8273 27.8094L29.9106 25.5507C29.5909 25.3028 29.1308 25.3614 28.8832 25.6813C28.6355 26.0011 28.6939 26.4611 29.0139 26.7088L31.9306 28.9675C32.2479 29.2136 32.7089 29.1585 32.958 28.8368C33.2057 28.5171 33.1473 28.057 32.8273 27.8094Z" fill="black"></path></svg>