<svg xmlns="http://www.w3.org/2000/svg" width="50" height="50" viewBox="0 0 50 50" fill="none"><g clip-path="url(#clip0)"><path d="M43.7814 28.698C43.2668 28.1259 42.7809 27.5854 42.6169 27.0817C42.4917 26.697 42.0783 26.4865 41.6939 26.6118C41.3093 26.7369 41.0989 27.1501 41.224 27.5348C41.484 28.3339 42.0982 29.0169 42.6921 29.6774C43.4169 30.4835 44.199 31.2718 43.9167 32.1604C43.7008 32.8401 43.024 33.3148 42.271 33.3148H37.6481C37.5619 28.1497 33.3248 23.9743 28.1279 23.9743C23.8656 23.9743 20.1549 26.802 18.987 30.8138C18.1714 30.4994 17.3437 30.2995 16.5267 30.5642C15.2823 30.9674 14.6173 32.2505 13.9897 33.3148H13.9858C13.233 33.3148 12.5557 32.8398 12.34 32.1633C12.0535 31.2649 12.8247 30.5004 13.5647 29.6774C14.1586 29.0169 14.7729 28.3338 15.0328 27.5348C15.3041 26.7012 15.2109 25.7637 15.1207 24.857C15.0252 23.8961 14.935 22.9885 15.302 22.4852C15.6773 21.9708 16.6197 21.7669 17.531 21.5696C18.418 21.3777 19.3351 21.1791 20.0371 20.6697C20.7293 20.1671 21.1965 19.3641 21.6483 18.5877C22.1202 17.7764 22.6083 16.9376 23.2287 16.7368C23.8049 16.5504 24.6324 16.9122 25.5085 17.2954C26.3553 17.6658 27.2311 18.0488 28.128 18.0488C29.0255 18.0488 29.9012 17.6658 30.7482 17.2954C31.6242 16.9122 32.4517 16.5505 33.0283 16.7368C33.6479 16.9374 34.1357 17.7757 34.6074 18.5864C35.0596 19.3635 35.527 20.167 36.22 20.6697C36.9218 21.1791 37.8389 21.3777 38.7258 21.5696C39.6369 21.7669 40.579 21.9708 40.9539 22.4851C41.1607 22.7688 41.2409 23.1989 41.214 23.8797C41.1979 24.2839 41.5126 24.6245 41.9168 24.6406C42.3212 24.6555 42.6616 24.342 42.6777 23.9378C42.7052 23.2423 42.6688 22.3507 42.1376 21.6222C41.4341 20.6573 40.2149 20.3933 39.0357 20.138C38.2519 19.9684 37.4692 19.8159 36.99 19.413C37.9649 19.114 38.748 18.3723 39.0637 17.3812C39.5591 15.8257 38.5013 14.5571 37.5311 13.4781C37.0164 12.9058 36.5303 12.3653 36.3664 11.8616C36.1903 11.3199 36.268 10.5378 36.3432 9.78134C36.4617 8.58948 36.5842 7.357 35.8875 6.40165C35.1837 5.43733 33.9649 5.17327 32.7861 4.91801C32.047 4.75796 31.2826 4.59243 30.8295 4.26305C30.3874 3.94236 29.9993 3.27538 29.6239 2.63038C29.0418 1.63012 28.382 0.496369 27.229 0.123236C26.1235 -0.235249 24.9984 0.256728 23.9103 0.732592C23.2016 1.04245 22.4687 1.36294 21.8782 1.36294C21.2872 1.36294 20.5543 1.04245 19.8457 0.732592C18.7575 0.256825 17.6324 -0.235152 16.5269 0.123236C15.3744 0.496369 14.715 1.62944 14.1332 2.62921C13.7575 3.2747 13.369 3.94216 12.9256 4.26354C12.473 4.59243 11.7088 4.75796 10.9698 4.91801C9.79111 5.17337 8.5722 5.43733 7.869 6.40195C7.17273 7.3569 7.29499 8.58899 7.41325 9.78046C7.48835 10.5371 7.56598 11.3195 7.38933 11.8616C7.22537 12.3655 6.73925 12.906 6.22462 13.4783C5.24799 14.5642 4.20036 15.83 4.69341 17.383C5.10658 18.6844 6.32901 19.5588 7.73512 19.5588C10.5352 19.5588 16.2505 19.5599 19.0636 19.5588C18.6035 19.8386 17.902 19.991 17.2212 20.1383C16.0421 20.3935 14.8228 20.6575 14.1187 21.6223C13.4221 22.5775 13.5447 23.8102 13.6633 25.0023C13.7384 25.7586 13.8162 26.5406 13.64 27.0819C13.476 27.5856 12.9901 28.1261 12.4756 28.6982C11.4961 29.7876 10.4488 31.0532 10.9434 32.6049C11.2586 33.594 12.0414 34.335 13.0158 34.6341C12.5276 35.0487 11.7797 35.1838 10.9705 35.359C9.7915 35.6143 8.57239 35.8783 7.86861 36.843C7.17214 37.7981 7.2946 39.0305 7.41296 40.2225C7.48815 40.9789 7.56578 41.761 7.38952 42.3026C7.22556 42.8065 6.73944 43.347 6.22481 43.9193C5.44515 44.7863 4.56139 45.7689 4.56139 47.0004C4.56139 47.273 4.60572 47.5503 4.69322 47.8249C5.10727 49.1259 6.32989 50.0001 7.73541 50.0001H36.0204C37.426 50.0001 38.6486 49.1259 39.0627 47.8249C39.1501 47.5502 39.1944 47.2728 39.1944 47.0004C39.1944 45.7689 38.3107 44.7863 37.531 43.9193C37.0163 43.3471 36.5302 42.8065 36.3663 42.3026C36.19 41.761 36.2677 40.9789 36.3428 40.2225C36.4612 39.0305 36.5836 37.7981 35.8871 36.8428C35.1834 35.8783 33.9643 35.6142 32.7853 35.359C32.1052 35.2117 31.4044 35.0595 30.9441 34.7799C33.721 34.797 39.4949 34.7799 42.2711 34.7799C43.677 34.7799 44.8993 33.9056 45.3127 32.6048C45.8075 31.0475 44.7511 29.7766 43.7814 28.698V28.698ZM13.8233 18.0938C13.8749 15.5123 15.169 13.1073 17.3088 11.6352C17.6421 11.4059 17.7264 10.9499 17.4971 10.6167C17.2677 10.2834 16.8118 10.1991 16.4786 10.4284C13.9414 12.1739 12.4103 15.0301 12.3585 18.0939H7.73502C6.98192 18.0939 6.30518 17.6193 6.08898 16.9381C5.80549 16.0452 6.57812 15.2754 7.31364 14.4577C7.90777 13.797 8.5221 13.1139 8.78206 12.315C9.05392 11.4808 8.96086 10.5428 8.87082 9.63573C8.77541 8.67541 8.68548 7.76831 9.05255 7.26491C9.42725 6.75086 10.369 6.54687 11.2798 6.34961C12.167 6.15742 13.0845 5.9587 13.7859 5.44905C14.4793 4.94652 14.9469 4.14303 15.3991 3.36601C15.8709 2.55548 16.3586 1.71733 16.9783 1.51675C17.5555 1.32974 18.3827 1.69174 19.2589 2.07474C20.1055 2.44494 20.9811 2.82774 21.8783 2.82774C22.7751 2.82774 23.6505 2.44494 24.4972 2.07474C25.3733 1.69155 26.201 1.32974 26.7777 1.51685C27.398 1.71752 27.8861 2.55617 28.3579 3.36718C28.8098 4.14372 29.277 4.94662 29.9691 5.44856C30.6712 5.9588 31.5888 6.15752 32.476 6.3497C33.3871 6.54706 34.329 6.75106 34.7041 7.26511C35.0713 7.76861 34.981 8.676 34.8855 9.63661C34.7954 10.5433 34.7022 11.4808 34.9734 12.3149C35.2335 13.114 35.8478 13.7971 36.4418 14.4578C37.1671 15.2643 37.9498 16.0518 37.6672 16.9391C37.4507 17.6191 36.7735 18.094 36.0204 18.094H36.0159C35.9681 18.0128 35.9207 17.9313 35.8734 17.85C35.2916 16.8501 34.632 15.7167 33.4792 15.3434C32.662 15.079 31.8346 15.2792 31.0193 15.5936C29.8516 11.582 26.1409 8.75441 21.8781 8.75441C21.2034 8.75441 20.5296 8.82531 19.8757 8.96505C19.4801 9.04952 19.2279 9.43877 19.3124 9.83426C19.3969 10.2299 19.7861 10.4816 20.1816 10.3975C20.7353 10.2793 21.3061 10.2192 21.8781 10.2192C25.5442 10.2192 28.7266 12.6895 29.6585 16.1699C29.1148 16.3968 28.5799 16.5843 28.1279 16.5843C27.5372 16.5843 26.8042 16.2637 26.0954 15.9536C25.0076 15.4778 23.8825 14.9859 22.7776 15.3435C21.533 15.7463 20.868 17.0295 20.2404 18.094H13.8233V18.0938ZM13.8221 48.5352C13.9081 44.1783 17.4887 40.6602 21.8777 40.6602C26.2668 40.6602 29.8474 44.1783 29.9333 48.5352H13.8221ZM32.4751 36.7905C33.3863 36.9878 34.3284 37.1918 34.7034 37.706C35.0706 38.2095 34.9805 39.117 34.8851 40.0777C34.795 40.9844 34.7019 41.9219 34.9732 42.7558C35.2333 43.555 35.8476 44.2381 36.4417 44.8987C37.0748 45.6027 37.7295 46.3306 37.7295 47.0003C37.7295 47.1234 37.709 47.2479 37.6667 47.3807C37.4504 48.0604 36.7734 48.5353 36.0203 48.5353H31.3978C31.3117 43.3706 27.0746 39.1955 21.8778 39.1955C16.681 39.1955 12.444 43.3706 12.3579 48.5353H7.73531C6.98231 48.5353 6.30528 48.0605 6.08888 47.3806C6.04659 47.2479 6.02609 47.1235 6.02609 47.0004C6.02609 46.3307 6.68075 45.6028 7.31384 44.8988C7.90786 44.2382 8.5223 43.555 8.78235 42.7559C9.05373 41.922 8.96057 40.9844 8.87053 40.0777C8.77512 39.117 8.68499 38.2096 9.05197 37.7062C9.42715 37.1919 10.3693 36.9879 11.2805 36.7906C12.1675 36.5985 13.0848 36.3998 13.7865 35.8902C14.4775 35.3885 14.9623 34.5569 15.3981 33.8081C15.8699 32.9972 16.3579 32.1587 16.9781 31.9579C17.086 31.9229 17.2026 31.9071 17.3268 31.9071C17.8543 31.9071 18.5166 32.1918 19.2118 32.4956C19.2142 32.4966 19.2164 32.4976 19.2187 32.4986C19.232 32.5045 19.2453 32.5102 19.2587 32.5161C20.1053 32.8864 20.9809 33.2692 21.8778 33.2692C22.7748 33.2692 23.6503 32.8863 24.497 32.5161C25.3731 32.1329 26.2006 31.7708 26.7777 31.958C27.3977 32.1587 27.8856 32.9972 28.3575 33.8081C28.8094 34.5847 29.2766 35.3877 29.969 35.8901C30.6709 36.3997 31.5881 36.5983 32.4751 36.7905V36.7905ZM29.7658 33.3149C29.1392 32.2494 28.475 30.9681 27.2289 30.5643C26.1232 30.206 24.9981 30.6981 23.91 31.1739C23.2013 31.4839 22.4684 31.8044 21.8777 31.8044C21.4261 31.8044 20.8912 31.6169 20.3477 31.3901C21.2799 27.9095 24.4621 25.4393 28.1278 25.4393C32.5169 25.4393 36.095 28.9579 36.1812 33.315H29.7658V33.3149Z" fill="black"></path></g><defs><clipPath id="clip0"><rect width="50" height="50" fill="white"></rect></clipPath></defs></svg>