<svg aria-hidden="true" style="position: absolute; width: 0; height: 0; overflow: hidden;" version="1.1" xmlns="http://www.w3.org/2000/svg" xmlns:xlink="http://www.w3.org/1999/xlink">
  <defs>
      <symbol id="icon-cook" viewBox="0 0 32 32">
        <path d="M32 12.524c-0.001-3.964-3.213-7.177-7.178-7.177-0.736-0-1.445 0.122-2.115 0.33-1.556-1.989-3.984-3.271-6.707-3.271s-5.15 1.281-6.707 3.271c-0.671-0.208-1.38-0.33-2.115-0.33-3.965 0.001-7.177 3.213-7.178 7.177 0.001 3.383 2.341 6.209 5.49 6.97-0.71 2.222-1.35 5.069-1.346 8.803v1.296h23.713v-1.297c0.003-3.734-0.636-6.581-1.346-8.803 3.149-0.761 5.489-3.588 5.49-6.97zM28.064 15.767c-0.833 0.831-1.969 1.341-3.238 1.343l-0.032-0-1.908-0.048 0.658 1.791c0.749 2.044 1.529 4.558 1.688 8.149h-18.465c0.159-3.591 0.939-6.105 1.688-8.149l0.658-1.792-1.94 0.049c-1.268-0.002-2.405-0.512-3.238-1.342-0.832-0.834-1.342-1.972-1.343-3.242 0.001-1.27 0.511-2.408 1.343-3.242 0.834-0.832 1.972-1.342 3.242-1.343 0.733 0 1.418 0.171 2.031 0.474l1.078 0.534 0.613-1.036c1.035-1.745 2.927-2.913 5.1-2.913 2.174-0 4.065 1.167 5.1 2.913l0.612 1.036 1.079-0.534c0.613-0.303 1.298-0.473 2.031-0.474 1.27 0 2.408 0.511 3.242 1.343 0.832 0.834 1.342 1.972 1.343 3.242s-0.511 2.409-1.343 3.242z"></path>
      </symbol>
      <symbol id="icon-facebook-logo-svgrepo-com" viewBox="0 0 32 32">
        <path  d="M24.309 5.312l-3.012 0.001c-2.362 0-2.819 1.122-2.819 2.769v3.632h5.633l-0.002 5.689h-5.631v14.597h-5.875v-14.597h-4.912v-5.689h4.912v-4.195c0-4.869 2.974-7.52 7.317-7.52l4.39 0.007-0 5.305z"></path>
      </symbol>
      <symbol id="icon-instagram-svg" viewBox="0 0 32 32">
        <path d="M23.846 9.594c0 0.795-0.645 1.44-1.44 1.44s-1.44-0.645-1.44-1.44c0-0.795 0.645-1.44 1.44-1.44s1.44 0.645 1.44 1.44z"></path>
        <path d="M16 9.838c-3.403 0-6.162 2.759-6.162 6.162s2.759 6.162 6.162 6.162c3.403 0 6.162-2.759 6.162-6.162v0c0-3.403-2.759-6.162-6.162-6.162v0zM16 20c-2.209 0-4-1.791-4-4s1.791-4 4-4c2.209 0 4 1.791 4 4v0c0 2.209-1.791 4-4 4v0z"></path>
        <path d="M16 6.162c3.204 0 3.584 0.012 4.849 0.070 0.803 0.010 1.567 0.161 2.274 0.428l-0.046-0.015c1.050 0.413 1.865 1.228 2.268 2.25l0.009 0.027c0.253 0.661 0.403 1.426 0.413 2.224l0 0.004c0.058 1.265 0.070 1.645 0.070 4.849s-0.012 3.584-0.070 4.849c-0.010 0.803-0.161 1.567-0.428 2.274l0.015-0.046c-0.413 1.050-1.228 1.865-2.25 2.268l-0.027 0.009c-0.661 0.253-1.426 0.403-2.224 0.413l-0.004 0c-1.265 0.058-1.645 0.070-4.849 0.070s-3.584-0.012-4.849-0.070c-0.803-0.010-1.567-0.161-2.274-0.428l0.046 0.015c-1.050-0.413-1.865-1.228-2.268-2.25l-0.009-0.027c-0.253-0.661-0.403-1.426-0.413-2.224l-0-0.004c-0.058-1.265-0.070-1.645-0.070-4.849s0.012-3.584 0.070-4.849c0.010-0.803 0.161-1.567 0.428-2.274l-0.015 0.046c0.413-1.050 1.228-1.865 2.25-2.268l0.027-0.009c0.661-0.253 1.426-0.403 2.224-0.413l0.004-0c1.265-0.058 1.645-0.070 4.849-0.070M16 4c-3.259 0-3.668 0.014-4.948 0.072-1.052 0.022-2.050 0.224-2.973 0.578l0.060-0.020c-1.617 0.637-2.873 1.893-3.495 3.468l-0.014 0.042c-0.333 0.863-0.536 1.861-0.558 2.904l-0 0.009c-0.058 1.279-0.072 1.688-0.072 4.947s0.014 3.668 0.072 4.948c0.022 1.052 0.224 2.050 0.578 2.973l-0.020-0.060c0.637 1.617 1.893 2.873 3.468 3.495l0.042 0.015c0.863 0.333 1.861 0.536 2.904 0.558l0.009 0c1.279 0.058 1.688 0.072 4.947 0.072s3.668-0.014 4.948-0.072c1.052-0.022 2.050-0.224 2.973-0.578l-0.060 0.020c1.617-0.637 2.873-1.893 3.495-3.468l0.015-0.042c0.333-0.863 0.536-1.861 0.558-2.904l0-0.009c0.058-1.279 0.072-1.688 0.072-4.947s-0.014-3.668-0.072-4.948c-0.022-1.052-0.224-2.050-0.578-2.973l0.020 0.060c-0.637-1.617-1.893-2.872-3.468-3.495l-0.042-0.014c-0.863-0.333-1.861-0.536-2.904-0.558l-0.009-0c-1.279-0.059-1.688-0.073-4.947-0.073z"></path>
      </symbol>
      <symbol id="icon-search" viewBox="0 0 32 32">
        <path d="M16 6.162c3.204 0 3.584 0.012 4.849 0.070 0.803 0.010 1.567 0.161 2.274 0.428l-0.046-0.015c1.050 0.413 1.865 1.228 2.268 2.25l0.009 0.027c0.253 0.661 0.403 1.426 0.413 2.224l0 0.004c0.058 1.265 0.070 1.645 0.070 4.849s-0.012 3.584-0.070 4.849c-0.010 0.803-0.161 1.567-0.428 2.274l0.015-0.046c-0.413 1.050-1.228 1.865-2.25 2.268l-0.027 0.009c-0.661 0.253-1.426 0.403-2.224 0.413l-0.004 0c-1.265 0.058-1.645 0.070-4.849 0.070s-3.584-0.012-4.849-0.070c-0.803-0.010-1.567-0.161-2.274-0.428l0.046 0.015c-1.050-0.413-1.865-1.228-2.268-2.25l-0.009-0.027c-0.253-0.661-0.403-1.426-0.413-2.224l-0-0.004c-0.058-1.265-0.070-1.645-0.070-4.849s0.012-3.584 0.070-4.849c0.010-0.803 0.161-1.567 0.428-2.274l-0.015 0.046c0.413-1.050 1.228-1.865 2.25-2.268l0.027-0.009c0.661-0.253 1.426-0.403 2.224-0.413l0.004-0c1.265-0.058 1.645-0.070 4.849-0.070M16 4c-3.259 0-3.668 0.014-4.948 0.072-1.052 0.022-2.050 0.224-2.973 0.578l0.060-0.020c-1.617 0.637-2.873 1.893-3.495 3.468l-0.014 0.042c-0.333 0.863-0.536 1.861-0.558 2.904l-0 0.009c-0.058 1.279-0.072 1.688-0.072 4.947s0.014 3.668 0.072 4.948c0.022 1.052 0.224 2.050 0.578 2.973l-0.020-0.060c0.637 1.617 1.893 2.873 3.468 3.495l0.042 0.015c0.863 0.333 1.861 0.536 2.904 0.558l0.009 0c1.279 0.058 1.688 0.072 4.947 0.072s3.668-0.014 4.948-0.072c1.052-0.022 2.050-0.224 2.973-0.578l-0.060 0.020c1.617-0.637 2.873-1.893 3.495-3.468l0.015-0.042c0.333-0.863 0.536-1.861 0.558-2.904l0-0.009c0.058-1.279 0.072-1.688 0.072-4.947s-0.014-3.668-0.072-4.948c-0.022-1.052-0.224-2.050-0.578-2.973l0.020 0.060c-0.637-1.617-1.893-2.872-3.468-3.495l-0.042-0.014c-0.863-0.333-1.861-0.536-2.904-0.558l-0.009-0c-1.279-0.059-1.688-0.073-4.947-0.073z"></path>
      </symbol>
      <symbol id="icon-star-empty-icon" viewBox="0 0 32 32">
        <path d="M16.753 1.293l4.088 9.571 10.368 0.93c0.458 0.040 0.796 0.443 0.756 0.9-0.019 0.223-0.125 0.417-0.281 0.554l0.001 0-7.844 6.849 2.32 10.152c0.103 0.448-0.178 0.895-0.626 0.997-0.23 0.053-0.459 0.005-0.642-0.115l-8.909-5.326-8.938 5.343c-0.394 0.236-0.905 0.107-1.141-0.287-0.115-0.191-0.143-0.411-0.097-0.613h-0.001l2.32-10.152-7.844-6.849c-0.346-0.303-0.381-0.828-0.078-1.174 0.154-0.176 0.366-0.271 0.581-0.283l10.341-0.928 4.090-9.577c0.18-0.423 0.669-0.62 1.092-0.44 0.208 0.088 0.362 0.252 0.443 0.445v0zM19.504 11.973l-3.519-8.24-3.52 8.24c-0.117 0.273-0.376 0.475-0.693 0.503l-8.925 0.801 6.717 5.865c0.247 0.193 0.374 0.517 0.3 0.843l-1.997 8.736 7.676-4.59c0.257-0.161 0.592-0.175 0.869-0.009l7.691 4.598-1.996-8.736 0.001-0.001c-0.066-0.289 0.025-0.603 0.263-0.811l6.753-5.896-8.879-0.797c-0.314-0.010-0.61-0.198-0.741-0.507v0z"></path>
      </symbol>
      <symbol id="icon-star-full-icon" viewBox="0 0 32 32">
        <path d="M15.984 0.78l4.4 10.751 11.585 0.862-8.866 7.506 2.76 11.284-9.879-6.112-9.879 6.112 2.76-11.284-8.866-7.506 11.585-0.862 4.4-10.751z"></path>
      </symbol>
      <symbol id="icon-telegram-svg" viewBox="0 0 32 32">
        <path d="M16 2.667c-7.333 0-13.333 6-13.333 13.333s6 13.333 13.333 13.333 13.333-6 13.333-13.333-6-13.333-13.333-13.333zM22.533 10.8l-2.267 10.933c-0.133 0.8-0.667 0.933-1.2 0.533l-3.467-2.667c-0.8 0.8-1.6 1.467-1.733 1.733-0.267 0.133-0.4 0.4-0.667 0.4-0.4 0-0.4-0.267-0.533-0.533l-1.2-4-3.6-1.2c-0.8-0.267-0.8-0.8 0.133-1.2l13.6-5.2c0.533-0.133 1.2 0.133 0.933 1.2zM19.333 12l-7.6 4.8 1.2 4 0.267-2.667 6.533-5.867c0.4-0.4 0.133-0.4-0.4-0.267z"></path>
      </symbol>
      <symbol id="icon-tictok-svg" viewBox="0 0 32 32">
        <path d="M29.945 9.128v4.879c-0.262 0-0.577 0.053-0.892 0.053-2.361 0-4.564-0.892-6.243-2.308v10.387c0 2.098-0.682 4.092-1.889 5.666-1.679 2.256-4.407 3.777-7.502 3.777-3.357 0-6.295-1.784-7.921-4.407 1.679 1.574 3.934 2.571 6.4 2.571 3.043 0 5.771-1.469 7.449-3.777 1.154-1.574 1.889-3.515 1.889-5.666v-10.439c1.679 1.469 3.829 2.308 6.243 2.308 0.315 0 0.577 0 0.892-0.052v-3.148c0.472 0.105 0.892 0.157 1.364 0.157h0.21z"></path>
        <path d="M14.732 12.747v5.403c-0.367-0.105-0.787-0.157-1.154-0.157-2.308 0-4.197 1.941-4.197 4.302 0 0.525 0.105 0.997 0.262 1.469-1.049-0.787-1.784-2.046-1.784-3.462 0-2.361 1.889-4.302 4.197-4.302 0.42 0 0.787 0.053 1.154 0.157v-3.462c0.105 0 0.21 0 0.315 0 0.42 0 0.839 0 1.207 0.052z"></path>
        <path d="M23.598 5.246c-0.944-0.839-1.626-1.993-1.993-3.2h1.259c0 0.262 0 0.472 0 0.734 0.105 0.839 0.367 1.679 0.735 2.466z"></path>
        <path d="M28.424 9.023v3.148c-0.262 0.052-0.577 0.052-0.892 0.052-2.361 0-4.564-0.892-6.243-2.308v10.387c0 2.098-0.682 4.092-1.889 5.666-1.731 2.308-4.407 3.777-7.449 3.777-2.466 0-4.721-0.997-6.4-2.571-0.892-1.469-1.416-3.147-1.416-4.984 0-5.089 4.039-9.233 9.075-9.39v3.462c-0.367-0.105-0.787-0.157-1.154-0.157-2.308 0-4.197 1.941-4.197 4.302 0 1.416 0.682 2.728 1.784 3.462 0.577 1.626 2.151 2.833 3.934 2.833 2.308 0 4.197-1.941 4.197-4.302v-20.354h3.829c0.367 1.259 1.049 2.361 1.993 3.2 0.944 1.889 2.728 3.305 4.826 3.777z"></path>
        <path d="M13.211 10.912v1.784c-5.036 0.157-9.075 4.302-9.075 9.39 0 1.836 0.525 3.515 1.416 4.984-1.784-1.731-2.885-4.144-2.885-6.872 0-5.193 4.197-9.39 9.338-9.39 0.42 0 0.839 0.052 1.207 0.105z"></path>
        <path d="M21.604 2.046h-3.83v20.249c0 2.361-1.888 4.302-4.197 4.302-1.836 0-3.357-1.154-3.934-2.833 0.682 0.472 1.521 0.787 2.413 0.787 2.308 0 4.197-1.889 4.197-4.249v-20.302h5.089v0.105c0 0.21 0 0.42 0.052 0.629 0 0.42 0.105 0.892 0.21 1.311z"></path>
        <path d="M28.424 7.082v1.889c-2.098-0.42-3.882-1.836-4.879-3.725 1.311 1.207 2.99 1.889 4.879 1.836z"></path>
      </symbol>
      <symbol id="icon-wall-clock-icon" viewBox="0 0 32 32">
        <path d="M16 32c-2.203 0-4.253-0.393-6.143-1.177-1.893-0.784-3.617-1.956-5.172-3.508-1.555-1.555-2.724-3.279-3.508-5.172-0.784-1.891-1.177-3.94-1.177-6.143s0.393-4.253 1.177-6.143c0.784-1.893 1.956-3.617 3.508-5.172s3.276-2.724 5.172-3.508c1.891-0.784 3.94-1.177 6.143-1.177s4.253 0.393 6.143 1.177c1.893 0.784 3.617 1.953 5.172 3.508s2.724 3.279 3.508 5.172c0.784 1.891 1.177 3.94 1.177 6.143 0 2.195-0.393 4.24-1.174 6.13-0.784 1.891-1.953 3.615-3.51 5.174-1.56 1.563-3.281 2.734-5.169 3.518-1.891 0.784-3.94 1.177-6.146 1.177v0zM15.982 4.456l1.604 2.779h-0.917v8.112h3.74v-0.919l2.779 1.604-2.779 1.604v-0.917h-5.112v-1.354h-0.005v-8.133h-0.917l1.607-2.776zM9.721 6.109c0.266-0.461 0.857-0.62 1.32-0.354 0.461 0.266 0.62 0.857 0.354 1.32-0.266 0.461-0.857 0.62-1.32 0.354-0.464-0.268-0.622-0.857-0.354-1.32v0zM5.609 10.576c0-0.534 0.432-0.966 0.966-0.966s0.966 0.432 0.966 0.966c0 0.534-0.432 0.966-0.966 0.966s-0.966-0.432-0.966-0.966v0zM4.281 16.5c-0.266-0.461-0.109-1.052 0.354-1.32 0.461-0.266 1.052-0.109 1.32 0.354 0.266 0.461 0.109 1.052-0.354 1.32s-1.055 0.109-1.32-0.354v0zM6.094 22.297c-0.461-0.266-0.62-0.857-0.354-1.32 0.266-0.461 0.857-0.62 1.32-0.354 0.461 0.266 0.62 0.857 0.354 1.32-0.268 0.461-0.859 0.62-1.32 0.354v0zM10.56 26.409c-0.534 0-0.966-0.432-0.966-0.966s0.432-0.966 0.966-0.966 0.966 0.432 0.966 0.966c0 0.534-0.432 0.966-0.966 0.966v0zM16.484 27.737c-0.461 0.266-1.052 0.109-1.32-0.354-0.266-0.461-0.109-1.052 0.354-1.32 0.461-0.266 1.052-0.109 1.32 0.354 0.266 0.461 0.109 1.052-0.354 1.32v0zM22.279 25.922c-0.266 0.461-0.857 0.62-1.32 0.354-0.461-0.266-0.62-0.857-0.354-1.32 0.266-0.461 0.857-0.62 1.32-0.354 0.464 0.268 0.622 0.859 0.354 1.32v0zM26.391 21.456c0 0.534-0.432 0.966-0.966 0.966s-0.966-0.432-0.966-0.966 0.432-0.966 0.966-0.966c0.534 0 0.966 0.432 0.966 0.966v0zM27.719 15.531c0.266 0.461 0.109 1.052-0.354 1.32-0.461 0.266-1.052 0.109-1.32-0.354-0.266-0.461-0.109-1.052 0.354-1.32 0.464-0.266 1.055-0.107 1.32 0.354v0zM25.906 9.737c0.461 0.266 0.62 0.857 0.354 1.32-0.266 0.461-0.857 0.62-1.32 0.354-0.461-0.266-0.62-0.857-0.354-1.32 0.268-0.464 0.859-0.622 1.32-0.354v0zM21.44 5.625c0.534 0 0.966 0.432 0.966 0.966s-0.432 0.966-0.966 0.966-0.966-0.432-0.966-0.966 0.432-0.966 0.966-0.966v0zM10.456 29.367c1.693 0.701 3.542 1.052 5.544 1.052 2 0 3.849-0.352 5.542-1.052 1.698-0.703 3.25-1.76 4.656-3.172 1.411-1.414 2.469-2.969 3.169-4.664 0.701-1.693 1.052-3.536 1.052-5.531 0-2.003-0.352-3.852-1.052-5.544-0.701-1.69-1.758-3.242-3.169-4.654s-2.964-2.469-4.654-3.169c-1.693-0.701-3.542-1.052-5.544-1.052s-3.852 0.352-5.544 1.052c-1.69 0.701-3.242 1.758-4.654 3.169s-2.469 2.964-3.169 4.654c-0.701 1.693-1.052 3.542-1.052 5.544s0.352 3.852 1.052 5.544c0.701 1.69 1.758 3.242 3.169 4.654s2.964 2.469 4.654 3.169v0z"></path>
      </symbol>
      <symbol id="icon-youtube-svg" viewBox="0 0 32 32">
        <path d="M12.696 20.18l-0.001-9.055 8.646 4.543-8.645 4.512zM31.68 9.556c0 0-0.313-2.221-1.272-3.199-1.217-1.284-2.581-1.29-3.206-1.365-4.478-0.326-11.195-0.326-11.195-0.326h-0.014c0 0-6.717 0-11.195 0.326-0.626 0.075-1.989 0.081-3.207 1.365-0.959 0.978-1.271 3.199-1.271 3.199s-0.32 2.608-0.32 5.216v2.445c0 2.608 0.32 5.216 0.32 5.216s0.312 2.221 1.271 3.199c1.218 1.284 2.817 1.244 3.529 1.378 2.56 0.248 10.88 0.324 10.88 0.324s6.724-0.010 11.202-0.336c0.625-0.076 1.989-0.082 3.206-1.366 0.959-0.978 1.272-3.199 1.272-3.199s0.32-2.607 0.32-5.216v-2.445c0-2.607-0.32-5.216-0.32-5.216v0z"></path>
      </symbol>
  </defs>
</svg>
